# xmcd CD database file
#
# Track frame offsets:
#	182
#	31382
#	52757
#	72632
#	116057
#	162932
#	210857
#	229082
#	281357
#	321707
#
# Disc length: 4372 seconds
#
# Revision: 6
# Processed by: cddbd v1.5.2PL0 Copyright (c) Steve Scherf et al.
# Submitted via: CDex 1.51
#
DISCID=8c11120a
DTITLE=Serge Prokofiev - Les 5 Concertos pour Piano (Valery Gergiev, Kirov Orchestra - Alexander Toradzt, piano)_1
DYEAR=1997
DGENRE=Classique
TTITLE0=Concerto N°1 en ré bémol majeur, Op.10 - I. Allegro brioso
TTITLE1=Concerto N°1 en ré bémol majeur, Op.10 - II. Andante assai
TTITLE2=Concerto N°1 en ré bémol majeur, Op.10 - III. Allegro scherzando
TTITLE3=Concerto N°3 en ut majeur, Op.26 - I. Andante - Allegro
TTITLE4=Concerto N°3 en ut majeur, Op.26 - II. Tema con variazione
TTITLE5=Concerto N°3 en ut majeur, Op.26 - III. Allegro ma non troppo
TTITLE6=Concerto N°4 en si bémol majeur, Op.53 - I. Vivace
TTITLE7=Concerto N°4 en si bémol majeur, Op.53 - II. Andante
TTITLE8=Concerto N°4 en si bémol majeur, Op.53 - III. Moderato
TTITLE9=Concerto N°4 en si bémol majeur, Op.53 - IV. Vivace
EXTD=YEAR: 1997
EXTT0=
EXTT1=
EXTT2=
EXTT3=
EXTT4=
EXTT5=
EXTT6=
EXTT7=
EXTT8=
EXTT9=
PLAYORDER=
